<svg id="Layer_8" height="512" viewBox="0 0 32 32" width="512" xmlns="http://www.w3.org/2000/svg" data-name="Layer 8"><g fill="#ffce61"><circle cx="20" cy="12" r="6"/><path d="m20 5a1 1 0 0 0 1-1v-1a1 1 0 0 0 -2 0v1a1 1 0 0 0 1 1z"/><path d="m29 11h-1a1 1 0 0 0 0 2h1a1 1 0 0 0 0-2z"/><path d="m26.364 7.05.707-.707a1 1 0 0 0 -1.414-1.414l-.707.707a1 1 0 1 0 1.414 1.414z"/><path d="m15.05 5.636-.707-.707a1 1 0 0 0 -1.414 1.414l.707.707a1 1 0 0 0 1.414-1.414z"/></g><path d="m24 13a5.934 5.934 0 0 0 -1.661.234 8.495 8.495 0 0 0 -16.326 2.792 4.5 4.5 0 0 0 .487 8.974h17.5a6 6 0 0 0 0-12z" fill="#a9e5ff"/><path d="m5.895 26.553a1 1 0 1 0 -1.789.895l1 2a1 1 0 0 0 1.789-.895z" fill="#ccf2ff"/><path d="m26.895 26.553a1 1 0 1 0 -1.789.895l1 2a1 1 0 0 0 1.789-.895z" fill="#ccf2ff"/><path d="m20.895 24.553a1 1 0 1 0 -1.789.895l1 2a1 1 0 0 0 1.789-.895z" fill="#ccf2ff"/><path d="m10.895 24.553a1 1 0 1 0 -1.789.895l1 2a1 1 0 0 0 1.789-.895z" fill="#ccf2ff"/><path d="m16.895 26.553a1 1 0 1 0 -1.789.895l1 2a1 1 0 0 0 1.789-.895z" fill="#ccf2ff"/></svg>