<svg id="Layer_1" height="512" viewBox="0 0 64 64" width="512" xmlns="http://www.w3.org/2000/svg" xmlns:xlink="http://www.w3.org/1999/xlink" data-name="Layer 1"><linearGradient id="linear-gradient" gradientUnits="userSpaceOnUse" x1="26.074" x2="37.63" y1="45.826" y2="9.381"><stop offset="0" stop-color="#7fcdee"/><stop offset="1" stop-color="#99d7f1"/></linearGradient><linearGradient id="linear-gradient-2" gradientUnits="userSpaceOnUse" x1="9.898" x2="12.648" y1="52.18" y2="42.18"><stop offset="0" stop-color="#99d7f1"/><stop offset="1" stop-color="#29abe2"/></linearGradient><linearGradient id="linear-gradient-3" x1="20.872" x2="23.872" xlink:href="#linear-gradient-2" y1="60.968" y2="50.802"/><linearGradient id="linear-gradient-4" x1="31.011" x2="34.094" xlink:href="#linear-gradient-2" y1="52.049" y2="40.049"/><linearGradient id="linear-gradient-5" x1="41.837" x2="45.087" xlink:href="#linear-gradient-2" y1="60.88" y2="50.38"/><linearGradient id="linear-gradient-6" x1="51.944" x2="55.194" xlink:href="#linear-gradient-2" y1="51.93" y2="40.347"/><path d="m56.064 19.936a7.022 7.022 0 0 0 -1.083.092 7.983 7.983 0 0 0 -12.081-7.914 10.987 10.987 0 0 0 -21.674 0 7.963 7.963 0 0 0 -12.08 7.914 7 7 0 1 0 4.126 11.572 6.989 6.989 0 0 0 12.792 1.926 6.986 6.986 0 0 0 12 0 6.989 6.989 0 0 0 12.792-1.926 7 7 0 1 0 5.208-11.666z" fill="url(#linear-gradient)"/><path d="m15.064 47.936a4 4 0 0 1 -8 0c0-2.209 3-8 4-8s4 5.791 4 8z" fill="url(#linear-gradient-2)"/><path d="m26.064 56.936a4 4 0 0 1 -8 0c0-2.209 3-8 4-8s4 5.791 4 8z" fill="url(#linear-gradient-3)"/><path d="m36.064 47.936a4 4 0 0 1 -8 0c0-2.209 3-8 4-8s4 5.791 4 8z" fill="url(#linear-gradient-4)"/><path d="m47.064 56.936a4 4 0 0 1 -8 0c0-2.209 3-8 4-8s4 5.791 4 8z" fill="url(#linear-gradient-5)"/><path d="m57.064 47.936a4 4 0 0 1 -8 0c0-2.209 3-8 4-8s4 5.791 4 8z" fill="url(#linear-gradient-6)"/></svg>