<svg clip-rule="evenodd" fill-rule="evenodd" height="512" image-rendering="optimizeQuality" shape-rendering="geometricPrecision" text-rendering="geometricPrecision" viewBox="0 0 1707 1707" width="512" xmlns="http://www.w3.org/2000/svg"><g id="Layer_x0020_1"><g id="_459199312"><path d="m300 856c-109 0-197-89-197-197 0-100 75-183 171-196-1-8-1-16-1-24 0-103 78-187 179-196 0-134 110-243 244-243 88 0 165 46 208 116 25-16 54-25 86-25 88 0 159 70 159 158v5c21-8 44-12 68-12 108 0 197 88 197 197 0 8-1 15-2 23 106 3 192 90 192 197 0 108-89 197-197 197-369 0-738 0-1107 0z" fill="#6cbff8"/><g fill="#94d0fb" fill-rule="nonzero"><path d="m225 1041c-17 0-31 14-31 30 0 17 14 31 31 31h247c17 0 30-14 30-31 0-16-13-30-30-30z"/><path d="m283 963c-12-12-32-12-44 0-11 11-11 31 0 43l175 174c12 12 31 12 43 0s12-31 0-43z"/><path d="m379 948c0-17-14-31-31-31s-30 14-30 31v247c0 17 13 30 30 30s31-13 31-30z"/><path d="m283 963c-12-12-32-12-44 0-11 11-11 31 0 43l175 174c12 12 31 12 43 0s12-31 0-43z"/><path d="m457 1006c12-12 12-32 0-43-12-12-31-12-43 0l-175 174c-11 12-11 31 0 43 12 12 32 12 44 0z"/><path d="m745 1103c-17 0-30 14-30 31s13 31 30 31h247c17 0 30-14 30-31s-13-31-30-31z"/><path d="m803 1025c-12-12-31-12-43 0s-12 31 0 43l174 175c12 12 31 12 43 0s12-31 0-43z"/><path d="m899 1011c0-17-14-31-30-31-17 0-31 14-31 31v246c0 17 14 31 31 31 16 0 30-14 30-31z"/><path d="m803 1025c-12-12-31-12-43 0s-12 31 0 43l174 175c12 12 31 12 43 0s12-31 0-43z"/><path d="m977 1068c12-12 12-31 0-43s-31-12-43 0l-174 175c-12 12-12 31 0 43s31 12 43 0z"/><path d="m1235 1075c-17 0-31 14-31 31s14 31 31 31h247c17 0 30-14 30-31s-13-31-30-31z"/><path d="m1293 997c-12-12-32-12-43 0-12 12-12 31 0 43l174 175c12 12 31 12 43 0s12-31 0-43z"/><path d="m1389 983c0-17-14-31-31-31s-30 14-30 31v246c0 17 13 31 30 31s31-14 31-31z"/><path d="m1293 997c-12-12-32-12-43 0-12 12-12 31 0 43l174 175c12 12 31 12 43 0s12-31 0-43z"/><path d="m1467 1040c12-12 12-31 0-43s-31-12-43 0l-174 175c-12 12-12 31 0 43 11 12 31 12 43 0z"/><path d="m397 1522c-17 0-30 14-30 31s13 30 30 30h247c17 0 31-13 31-30s-14-31-31-31z"/><path d="m455 1444c-12-12-31-12-43 0s-12 31 0 43l174 175c12 12 32 12 44 0 11-12 11-32 0-44z"/><path d="m551 1429c0-17-13-30-30-30s-31 13-31 30v247c0 17 14 31 31 31s30-14 30-31z"/><path d="m455 1444c-12-12-31-12-43 0s-12 31 0 43l174 175c12 12 32 12 44 0 11-12 11-32 0-44z"/><path d="m630 1487c11-12 11-31 0-43-12-12-32-12-44 0l-174 174c-12 12-12 32 0 44s31 12 43 0z"/><path d="m1043 1450c-16 0-30 14-30 31s14 30 30 30h247c17 0 31-13 31-30s-14-31-31-31z"/><path d="m1101 1372c-12-12-31-12-43 0s-12 31 0 43l175 175c11 12 31 12 43 0s12-32 0-44z"/><path d="m1197 1357c0-17-13-30-30-30s-31 13-31 30v247c0 17 14 31 31 31s30-14 30-31z"/><path d="m1101 1372c-12-12-31-12-43 0s-12 31 0 43l175 175c11 12 31 12 43 0s12-32 0-44z"/><path d="m1276 1415c12-12 12-31 0-43s-32-12-43 0l-175 174c-12 12-12 32 0 44s31 12 43 0z"/></g></g></g></svg>