<svg fill="none" height="512" viewBox="0 0 32 32" width="512" xmlns="http://www.w3.org/2000/svg" xmlns:xlink="http://www.w3.org/1999/xlink"><linearGradient id="lg1"><stop offset="0" stop-color="#b0e7ff"/><stop offset="1" stop-color="#3cadff"/></linearGradient><linearGradient id="paint0_linear_364_1265" gradientUnits="userSpaceOnUse" x1="15.999" x2="22.554" xlink:href="#lg1" y1="1.384" y2="18.49"/><linearGradient id="paint1_linear_364_1265" gradientUnits="userSpaceOnUse" x1="13.999" x2="15.065" xlink:href="#lg1" y1="22.076" y2="28.833"/><linearGradient id="paint2_linear_364_1265" gradientUnits="userSpaceOnUse" x1="18.279" x2="6.977" y1="28.1" y2="22.892"><stop offset="0" stop-color="#ffb800"/><stop offset="1" stop-color="#fff281"/></linearGradient><g clip-rule="evenodd" fill-rule="evenodd"><path d="m30 15.5c0-2.631-1.8473-4.8305-4.3157-5.3722-.113-2.29874-2.0127-4.1278-4.3395-4.1278-.8998 0-1.7357.27354-2.4292.742-1.3265-1.67066-3.3752-2.742-5.6742-2.742-3.952 0-7.16457 3.16581-7.24004 7.0997-2.28292.4628-4.00136 2.4809-4.00136 4.9003 0 2.7614 2.23858 5 5 5h17.5c3.0376 0 5.5-2.4624 5.5-5.5z" fill="url(#paint0_linear_364_1265)"/><path d="m5.8944 24.4472c.24699-.494.04677-1.0947-.44721-1.3417-.49398-.2469-1.09465-.0467-1.34164.4473l-2 4c-.24699.4939-.04677 1.0946.44721 1.3416s1.09465.0468 1.34164-.4472zm15 0c.247-.494.0468-1.0947-.4472-1.3417-.494-.2469-1.0946-.0467-1.3416.4473l-2 4c-.247.4939-.0468 1.0946.4472 1.3416s1.0946.0468 1.3416-.4472zm-10.5 1c.247-.494.0468-1.0947-.44721-1.3417-.49398-.2469-1.09465-.0467-1.34164.4473l-1.5 3c-.24699.4939-.04677 1.0946.44721 1.3416s1.09465.0468 1.34164-.4472zm15.0528-2.3417c.494.247.6942.8477.4472 1.3417l-2 4c-.247.494-.8476.6942-1.3416.4472s-.6942-.8477-.4472-1.3416l2-4c.247-.494.8476-.6942 1.3416-.4473z" fill="url(#paint1_linear_364_1265)"/><path d="m15.6879 19.4587 1.163-3.912c.32-1.0761-1.1033-1.7814-1.7658-.8751l-4.6667 6.3841c-.48302.6607-.0111 1.5901.8073 1.5901h2.6343l-1.1552 4.1822c-.3038 1.1001 1.176 1.7687 1.8008.8137l4.3411-6.6355c.4351-.6651-.0421-1.5475-.8369-1.5475z" fill="url(#paint2_linear_364_1265)"/></g></svg>